<svg width="28" height="30" viewBox="0 0 28 30" fill="none" xmlns="http://www.w3.org/2000/svg">
<path d="M23.025 30C23.65 28.45 24.0875 26.8625 24.3375 25.2375C24.5875 23.6125 24.65 21.975 24.525 20.325C23.55 22.4 22.0938 24.0312 20.1562 25.2188C18.2188 26.4062 16.1 27 13.8 27C11.7 27 9.8 26.5062 8.1 25.5187C6.4 24.5312 4.95 23.2125 3.75 21.5625C2.55 19.9125 1.625 18.0188 0.975 15.8813C0.325 13.7438 0 11.525 0 9.225C0 7.65 0.10625 6.09375 0.31875 4.55625C0.53125 3.01875 0.9 1.5 1.425 0H4.575C3.975 1.55 3.54375 3.1375 3.28125 4.7625C3.01875 6.3875 2.95 8.025 3.075 9.675C4.05 7.6 5.50625 5.96875 7.44375 4.78125C9.38125 3.59375 11.5 3 13.8 3C15.9 3 17.8 3.49375 19.5 4.48125C21.2 5.46875 22.65 6.7875 23.85 8.4375C25.05 10.0875 25.975 11.9812 26.625 14.1187C27.275 16.2563 27.6 18.475 27.6 20.775C27.6 22.35 27.4937 23.9062 27.2812 25.4438C27.0688 26.9813 26.7 28.5 26.175 30H23.025ZM13.8 24C16.3 24 18.425 23.125 20.175 21.375C21.925 19.625 22.8 17.5 22.8 15C22.8 12.5 21.925 10.375 20.175 8.625C18.425 6.875 16.3 6 13.8 6C11.3 6 9.175 6.875 7.425 8.625C5.675 10.375 4.8 12.5 4.8 15C4.8 17.5 5.675 19.625 7.425 21.375C9.175 23.125 11.3 24 13.8 24ZM13.8 21C15.45 21 16.8625 20.4125 18.0375 19.2375C19.2125 18.0625 19.8 16.65 19.8 15C19.8 13.35 19.2125 11.9375 18.0375 10.7625C16.8625 9.5875 15.45 9 13.8 9C12.15 9 10.7375 9.5875 9.5625 10.7625C8.3875 11.9375 7.8 13.35 7.8 15C7.8 16.65 8.3875 18.0625 9.5625 19.2375C10.7375 20.4125 12.15 21 13.8 21ZM13.8 18C12.975 18 12.2687 17.7062 11.6812 17.1187C11.0938 16.5312 10.8 15.825 10.8 15C10.8 14.175 11.0938 13.4688 11.6812 12.8813C12.2687 12.2938 12.975 12 13.8 12C14.625 12 15.3313 12.2938 15.9187 12.8813C16.5063 13.4688 16.8 14.175 16.8 15C16.8 15.825 16.5063 16.5312 15.9187 17.1187C15.3313 17.7062 14.625 18 13.8 18Z" fill="#D4AF37"/>
</svg>
